<svg width="36" height="11" viewBox="0 0 36 11" fill="none" xmlns="http://www.w3.org/2000/svg">
<path d="M0.0568182 10V1.27273H1.0625V4.49432H1.14773C1.22159 4.38068 1.32386 4.2358 1.45455 4.05966C1.58807 3.88068 1.77841 3.72159 2.02557 3.58239C2.27557 3.44034 2.61364 3.36932 3.03977 3.36932C3.59091 3.36932 4.0767 3.5071 4.49716 3.78267C4.91761 4.05824 5.24574 4.44886 5.48153 4.95455C5.71733 5.46023 5.83523 6.05682 5.83523 6.74432C5.83523 7.4375 5.71733 8.03835 5.48153 8.54688C5.24574 9.05256 4.91903 9.4446 4.50142 9.72301C4.08381 9.99858 3.60227 10.1364 3.05682 10.1364C2.63636 10.1364 2.29972 10.0668 2.04688 9.92756C1.79403 9.78551 1.59943 9.625 1.46307 9.44602C1.3267 9.2642 1.22159 9.11364 1.14773 8.99432H1.02841V10H0.0568182ZM1.04545 6.72727C1.04545 7.22159 1.1179 7.65767 1.26278 8.03551C1.40767 8.41051 1.61932 8.70455 1.89773 8.91761C2.17614 9.12784 2.51705 9.23295 2.92045 9.23295C3.34091 9.23295 3.69176 9.12216 3.97301 8.90057C4.2571 8.67614 4.47017 8.375 4.61222 7.99716C4.7571 7.61648 4.82955 7.19318 4.82955 6.72727C4.82955 6.26705 4.75852 5.85227 4.61648 5.48295C4.47727 5.1108 4.26563 4.81676 3.98153 4.60085C3.70028 4.3821 3.34659 4.27273 2.92045 4.27273C2.51136 4.27273 2.16761 4.37642 1.8892 4.58381C1.6108 4.78835 1.40057 5.07528 1.25852 5.4446C1.11648 5.81108 1.04545 6.23864 1.04545 6.72727ZM10.1179 10.1364C9.48722 10.1364 8.94318 9.99716 8.4858 9.71875C8.03125 9.4375 7.6804 9.04545 7.43324 8.54261C7.18892 8.03693 7.06676 7.44886 7.06676 6.77841C7.06676 6.10795 7.18892 5.51705 7.43324 5.00568C7.6804 4.49148 8.02415 4.09091 8.46449 3.80398C8.90767 3.5142 9.42472 3.36932 10.0156 3.36932C10.3565 3.36932 10.6932 3.42614 11.0256 3.53977C11.358 3.65341 11.6605 3.83807 11.9332 4.09375C12.206 4.34659 12.4233 4.68182 12.5852 5.09943C12.7472 5.51705 12.8281 6.03125 12.8281 6.64205V7.06818H7.78267V6.19886H11.8054C11.8054 5.82955 11.7315 5.5 11.5838 5.21023C11.4389 4.92045 11.2315 4.69176 10.9616 4.52415C10.6946 4.35653 10.3793 4.27273 10.0156 4.27273C9.61506 4.27273 9.26847 4.37216 8.97585 4.57102C8.68608 4.76705 8.46307 5.02273 8.30682 5.33807C8.15057 5.65341 8.07244 5.99148 8.07244 6.35227V6.93182C8.07244 7.42614 8.15767 7.84517 8.32812 8.18892C8.50142 8.52983 8.74148 8.78977 9.0483 8.96875C9.35511 9.14489 9.71165 9.23295 10.1179 9.23295C10.3821 9.23295 10.6207 9.19602 10.8338 9.12216C11.0497 9.04545 11.2358 8.93182 11.392 8.78125C11.5483 8.62784 11.669 8.4375 11.7543 8.21023L12.7259 8.48295C12.6236 8.8125 12.4517 9.10227 12.2102 9.35227C11.9688 9.59943 11.6705 9.79261 11.3153 9.93182C10.9602 10.0682 10.5611 10.1364 10.1179 10.1364ZM17.2727 3.45455V4.30682H13.7443V3.45455H17.2727ZM14.8011 10V2.55114C14.8011 2.17614 14.8892 1.86364 15.0653 1.61364C15.2415 1.36364 15.4702 1.17614 15.7514 1.05114C16.0327 0.926136 16.3295 0.863636 16.642 0.863636C16.8892 0.863636 17.0909 0.883522 17.2472 0.923295C17.4034 0.963068 17.5199 1 17.5966 1.03409L17.3068 1.90341C17.2557 1.88636 17.1847 1.86506 17.0938 1.83949C17.0057 1.81392 16.8892 1.80114 16.7443 1.80114C16.4119 1.80114 16.1719 1.88494 16.0241 2.05256C15.8793 2.22017 15.8068 2.46591 15.8068 2.78977V10H14.8011ZM21.0717 10.1364C20.4808 10.1364 19.9624 9.99574 19.5163 9.71449C19.0732 9.43324 18.7266 9.03977 18.4766 8.53409C18.2294 8.02841 18.1058 7.4375 18.1058 6.76136C18.1058 6.07955 18.2294 5.48437 18.4766 4.97585C18.7266 4.46733 19.0732 4.07244 19.5163 3.79119C19.9624 3.50994 20.4808 3.36932 21.0717 3.36932C21.6626 3.36932 22.1797 3.50994 22.6229 3.79119C23.0689 4.07244 23.4155 4.46733 23.6626 4.97585C23.9126 5.48437 24.0376 6.07955 24.0376 6.76136C24.0376 7.4375 23.9126 8.02841 23.6626 8.53409C23.4155 9.03977 23.0689 9.43324 22.6229 9.71449C22.1797 9.99574 21.6626 10.1364 21.0717 10.1364ZM21.0717 9.23295C21.5206 9.23295 21.8899 9.1179 22.1797 8.88778C22.4695 8.65767 22.6839 8.35511 22.8232 7.98011C22.9624 7.60511 23.032 7.19886 23.032 6.76136C23.032 6.32386 22.9624 5.91619 22.8232 5.53835C22.6839 5.16051 22.4695 4.85511 22.1797 4.62216C21.8899 4.3892 21.5206 4.27273 21.0717 4.27273C20.6229 4.27273 20.2536 4.3892 19.9638 4.62216C19.674 4.85511 19.4595 5.16051 19.3203 5.53835C19.1811 5.91619 19.1115 6.32386 19.1115 6.76136C19.1115 7.19886 19.1811 7.60511 19.3203 7.98011C19.4595 8.35511 19.674 8.65767 19.9638 8.88778C20.2536 9.1179 20.6229 9.23295 21.0717 9.23295ZM25.5728 10V3.45455H26.5444V4.44318H26.6126C26.7319 4.11932 26.9478 3.85653 27.2603 3.65483C27.5728 3.45312 27.9251 3.35227 28.3171 3.35227C28.391 3.35227 28.4833 3.35369 28.5941 3.35653C28.7049 3.35937 28.7887 3.36364 28.8455 3.36932V4.39205C28.8114 4.38352 28.7333 4.37074 28.6112 4.35369C28.4918 4.33381 28.3654 4.32386 28.2319 4.32386C27.9137 4.32386 27.6296 4.39062 27.3796 4.52415C27.1325 4.65483 26.9364 4.83665 26.7915 5.0696C26.6495 5.29972 26.5785 5.5625 26.5785 5.85795V10H25.5728ZM32.5827 10.1364C31.9521 10.1364 31.408 9.99716 30.9506 9.71875C30.4961 9.4375 30.1452 9.04545 29.8981 8.54261C29.6538 8.03693 29.5316 7.44886 29.5316 6.77841C29.5316 6.10795 29.6538 5.51705 29.8981 5.00568C30.1452 4.49148 30.489 4.09091 30.9293 3.80398C31.3725 3.5142 31.8896 3.36932 32.4805 3.36932C32.8214 3.36932 33.158 3.42614 33.4904 3.53977C33.8228 3.65341 34.1254 3.83807 34.3981 4.09375C34.6708 4.34659 34.8881 4.68182 35.0501 5.09943C35.212 5.51705 35.293 6.03125 35.293 6.64205V7.06818H30.2475V6.19886H34.2702C34.2702 5.82955 34.1964 5.5 34.0487 5.21023C33.9038 4.92045 33.6964 4.69176 33.4265 4.52415C33.1594 4.35653 32.8441 4.27273 32.4805 4.27273C32.0799 4.27273 31.7333 4.37216 31.4407 4.57102C31.1509 4.76705 30.9279 5.02273 30.7717 5.33807C30.6154 5.65341 30.5373 5.99148 30.5373 6.35227V6.93182C30.5373 7.42614 30.6225 7.84517 30.793 8.18892C30.9663 8.52983 31.2063 8.78977 31.5131 8.96875C31.82 9.14489 32.1765 9.23295 32.5827 9.23295C32.8469 9.23295 33.0856 9.19602 33.2987 9.12216C33.5146 9.04545 33.7006 8.93182 33.8569 8.78125C34.0131 8.62784 34.1339 8.4375 34.2191 8.21023L35.1907 8.48295C35.0884 8.8125 34.9165 9.10227 34.6751 9.35227C34.4336 9.59943 34.1353 9.79261 33.7802 9.93182C33.4251 10.0682 33.0259 10.1364 32.5827 10.1364Z" fill="#EBFF05"/>
</svg>
